# xmcd CD database file
#
# Track frame offsets:
#	150
#	13355
#	38202
#	52930
#	69325
#	80979
#	94727
#	112335
#	124720
#	140860
#
# Disc length: 2088 seconds
#
# Revision: 3
# Processed by: cddbd v1.5PL3 Copyright (c) Steve Scherf et al.
# Submitted via: CDex 1.51
#
DISCID=9408260a
DTITLE=Blues Etílicos - Blues Etílicos
DYEAR=1987
DGENRE=Blues
TTITLE0=Safra 63
TTITLE1=You've Got To Love Her With A Feeling
TTITLE2=Estudo Em Vermelho
TTITLE3=Back Door Man
TTITLE4=Key To The Highway
TTITLE5=O Sol Também Me Levanta
TTITLE6=Não É Por Nada Não
TTITLE7=Back Track
TTITLE8=Auto-suficiência
TTITLE9=Dust My Broom
EXTD=Blues Etílicos is a Brazilian Blues Group YEAR: 1987
EXTT0=
EXTT1=
EXTT2=
EXTT3=
EXTT4=
EXTT5=
EXTT6=
EXTT7=
EXTT8=
EXTT9=
PLAYORDER=
